<svg viewBox="0 0 72 68" fill="none" xmlns="http://www.w3.org/2000/svg"><path fill-rule="evenodd" clip-rule="evenodd" d="M60.067 12.743c-5.288-5.559-15.627-5.892-21.266.46l-3.014 3.394-3.221-3.201c-6.521-6.48-16.32-5.788-20.302-.841l-.052.065-.056.063c-5.038 5.778-4.884 14.854 1.066 20.029l.123.106 22.74 23.036L58.78 32.867l.069-.064c5.699-5.286 6.082-14.415 1.219-20.06zM35.438 4.721c9.39-7.242 23.268-5.894 30.94 2.275l.053.057.052.06c7.902 9.061 7.305 23.394-1.723 31.841L36.086 68 7.458 39c-9.701-8.562-9.539-22.912-1.824-31.825C12.68-1.495 26.06-1.857 35.438 4.72z" fill="#174463"/></svg>