<svg xmlns="http://www.w3.org/2000/svg" xmlns:xlink="http://www.w3.org/1999/xlink"><defs><clipPath id="clip0_3504_131"><path fill="#fff" d="M0 0h129v20H0z"/></clipPath></defs><symbol id="icon-benefits-first" viewBox="0 0 20 24"><path fill-rule="evenodd" clip-rule="evenodd" d="M12.835.07a2.628 2.628 0 00-1.933 1.986c-.054.256-.066 1.386-.066 6.562l-.001 6.253-.279.19a4.79 4.79 0 00-1.912 2.706c-.16.604-.182 1.641-.047 2.271.404 1.883 1.78 3.357 3.576 3.832.408.109.567.125 1.22.13.58.003.836-.015 1.122-.083.998-.234 1.72-.645 2.433-1.384 1.618-1.678 1.889-4.29.638-6.16a5.13 5.13 0 00-1.229-1.283L16 14.825l-.013-6.417-.012-6.418-.106-.28C15.404.476 14.09-.234 12.835.07zm1.05.938c.491.146.906.526 1.079.989.094.251.095.338.098 6.695.002 4.863.016 6.48.059 6.602.044.128.13.206.408.372.423.254 1.13.948 1.354 1.331a3.77 3.77 0 01.535 2.008 4.104 4.104 0 01-1.086 2.824c-.711.772-1.607 1.188-2.68 1.245-2.53.135-4.576-2.135-4.176-4.632a4.52 4.52 0 01.513-1.413c.268-.45.778-.977 1.254-1.293.215-.144.423-.305.461-.36.06-.087.07-.92.07-6.54 0-6.13.004-6.452.086-6.717.274-.88 1.161-1.367 2.025-1.11zm-9.692.46a4.844 4.844 0 00-2.82 1.498c-1.83 1.924-1.83 4.855 0 6.779 1.031 1.085 2.438 1.643 3.891 1.543 2.134-.148 3.92-1.633 4.478-3.726.107-.4.122-.547.122-1.207 0-.659-.015-.806-.122-1.206-.574-2.152-2.42-3.642-4.61-3.722a5.1 5.1 0 00-.939.042zm1.713.995a5.17 5.17 0 011.3.588 4.173 4.173 0 011.618 2.298c.138.512.15 1.452.025 1.922-.333 1.252-1.109 2.19-2.246 2.718-.614.285-.947.354-1.682.35-.543-.004-.693-.022-1.047-.129-1.17-.352-2.04-1.086-2.542-2.146-.277-.583-.368-1.008-.368-1.709 0-.478.022-.69.101-.985a4.056 4.056 0 013.307-2.984c.349-.055 1.177-.014 1.534.077zm11.302-.049c-.268.148-.31.506-.087.73l.137.137h1.086c1.197 0 1.301-.02 1.407-.276a.471.471 0 00-.121-.528c-.117-.11-.133-.112-1.206-.123-.897-.009-1.11.002-1.216.06zm-13.492.935c-.18.078-.25.198-.25.423 0 .136.099.316.518.944.48.718.518.791.505.973-.014.193-.018.197-.202.21-.17.013-.262-.034-.964-.496-.427-.28-.827-.523-.888-.54-.315-.082-.625.278-.518.602.042.126.153.225.554.496.276.186.52.354.542.374.023.02-.203.198-.502.396-.44.291-.553.39-.594.516-.113.342.21.688.55.59.078-.022.46-.253.85-.514.664-.445.725-.475.945-.475h.236v.189c0 .162-.073.298-.516.961-.431.645-.516.802-.516.951 0 .338.27.538.585.434.14-.046.225-.14.502-.556.183-.275.347-.516.365-.536.017-.02.196.207.396.504.315.468.387.546.54.592.236.07.454-.036.552-.27.095-.228.064-.3-.495-1.136-.426-.637-.474-.73-.474-.92v-.213h.223c.205 0 .283.04.95.485.4.267.779.498.841.514.164.042.41-.078.494-.242.163-.315.062-.47-.58-.895-.286-.19-.52-.349-.52-.355 0-.006.234-.165.52-.354.642-.424.743-.58.58-.896-.085-.164-.33-.283-.494-.24-.062.015-.458.257-.879.537-.648.43-.794.507-.95.507h-.185v-.235c0-.221.03-.281.474-.944.559-.836.59-.908.495-1.136-.098-.233-.316-.34-.55-.27-.15.044-.224.126-.54.592-.201.297-.38.524-.398.504-.018-.02-.181-.26-.364-.535-.257-.386-.366-.511-.483-.552-.182-.063-.171-.064-.355.016zm13.53.942c-.192.1-.259.207-.26.413-.002.138.03.212.135.317l.137.137h.64c.73 0 .835-.037.921-.326a.439.439 0 00-.264-.546c-.226-.094-1.125-.09-1.308.005zm-4.08 1.437c-.222.129-.219.046-.219 5.345 0 3.943-.012 4.981-.058 4.994-.741.197-1.174.427-1.608.853-.34.333-.59.738-.763 1.236-.108.31-.124.43-.123.92 0 .482.019.617.126.942a3.097 3.097 0 002.692 2.113c1.197.1 2.413-.598 2.95-1.694.226-.457.308-.816.31-1.343.002-.88-.267-1.528-.896-2.155-.49-.49-.905-.719-1.562-.864l-.13-.029V5.964l-.12-.145c-.101-.12-.156-.144-.317-.143a.727.727 0 00-.282.052zm3.94.56c-.176.209-.167.452.022.634l.143.137.995.015c1.16.017 1.318-.013 1.46-.276.106-.199.077-.374-.09-.54l-.113-.114h-2.296l-.122.145zm.015 1.87c-.246.247-.157.632.176.758.184.07 1.074.055 1.258-.022a.439.439 0 00.264-.546c-.086-.289-.192-.326-.922-.326h-.639l-.137.137zm0 1.878c-.156.157-.187.428-.069.597.133.19.282.21 1.4.196 1.041-.014 1.061-.016 1.178-.126a.572.572 0 00.148-.244c.038-.173-.087-.437-.24-.506-.077-.035-.49-.054-1.199-.054h-1.08l-.138.137zm-3.118 7.006c.322.083.643.275.916.549 1.22 1.223.546 3.288-1.17 3.583-.633.108-1.338-.125-1.812-.599-.792-.792-.83-2.091-.084-2.89.597-.637 1.324-.854 2.15-.643z" fill="#003154"/></symbol><symbol id="icon-benefits-fourth" viewBox="0 0 25 24"><path fill-rule="evenodd" clip-rule="evenodd" d="M10.856.029a12.081 12.081 0 00-8.922 5.418C-1.086 10.046-.518 16.3 3.28 20.24c.34.354.469.423.69.37.177-.044 1.967-1.838 1.992-1.998.033-.217-.05-.381-.363-.713-.317-.335-.867-1.046-.867-1.119 0-.022.2-.158.445-.302.244-.143.466-.302.492-.351a.499.499 0 00-.089-.57c-.194-.194-.374-.181-.778.056-.63.369-.556.368-.727.006-.358-.758-.681-1.969-.737-2.763l-.027-.384.574-.016c.562-.015.576-.018.687-.147a.454.454 0 00.113-.315.454.454 0 00-.113-.314c-.11-.129-.125-.132-.687-.147l-.574-.016.027-.384c.056-.8.368-1.966.727-2.718l.174-.364.446.258c.528.306.69.328.895.122a.499.499 0 00.09-.569c-.027-.05-.249-.208-.493-.352-.245-.144-.445-.274-.445-.289 0-.107.64-.889 1.126-1.375.487-.486 1.268-1.126 1.376-1.126.015 0 .145.2.289.444.144.245.302.467.351.493a.5.5 0 00.57-.089c.205-.206.184-.367-.122-.895l-.259-.446.365-.174c.751-.359 1.917-.671 2.717-.728l.384-.027.016.574c.015.563.019.577.148.688.178.153.45.153.628 0 .129-.111.132-.125.147-.688l.016-.574.385.027c.8.057 1.965.369 2.717.728l.364.174-.258.446c-.306.528-.328.689-.122.895.146.146.39.185.57.09.049-.027.207-.25.35-.494.145-.244.275-.444.29-.444.107 0 .889.64 1.375 1.126.486.486 1.127 1.268 1.127 1.375 0 .015-.2.145-.445.29-.245.143-.466.302-.493.351a.499.499 0 00.089.57c.205.204.367.183.895-.12l.446-.257.174.362c.358.745.671 1.915.728 2.716l.027.384-.574.016c-.563.015-.577.018-.688.147a.487.487 0 000 .629c.111.129.125.132.688.147l.574.016-.027.384c-.03.412-.204 1.344-.263 1.404-.02.02-.182 0-.36-.043-.434-.106-1.508-.107-1.973-.002-1.013.228-1.867.704-2.555 1.424-.527.552-.84 1.045-1.081 1.707-.529 1.449-.384 2.954.412 4.285.28.47.934 1.163 1.4 1.484 2.485 1.718 5.895.845 7.23-1.851.146-.293.31-.72.381-.986.11-.416.124-.555.123-1.22 0-.66-.016-.808-.125-1.22a6.158 6.158 0 00-.385-.995l-.26-.525.145-.414c.985-2.79.837-6.098-.395-8.829a12.225 12.225 0 00-5.093-5.569C16.669.823 15.146.31 13.672.092c-.574-.085-2.24-.122-2.816-.063zm2.769 1.005a11.045 11.045 0 016.197 3.144c.885.884 1.53 1.775 2.089 2.885a11.19 11.19 0 011.06 3.36c.117.775.119 2.364.002 3.12-.09.586-.215 1.155-.365 1.658l-.095.32-.208-.192c-.189-.174-.843-.628-.96-.668-.031-.01-.014-.157.047-.402.466-1.87.318-3.982-.407-5.808-1.045-2.63-3.246-4.72-5.902-5.604a9.59 9.59 0 00-7.325.485A9.674 9.674 0 002.85 8.943a9.654 9.654 0 001.667 9.146l.32.392-.487.488c-.267.269-.502.483-.522.476-.084-.028-.73-.852-1.075-1.371-.873-1.313-1.472-2.892-1.714-4.514-.115-.774-.114-2.412.002-3.161.66-4.25 3.542-7.628 7.646-8.967.699-.228 1.38-.362 2.474-.487.35-.04 2.018.02 2.464.09zM11.693 5.77l-.13.112-.452 3.373-.453 3.373-.3.305c-.479.487-.699 1.004-.699 1.643 0 1.107.764 2.06 1.845 2.302.342.076.974.036 1.308-.084.909-.328 1.54-1.237 1.54-2.218 0-.639-.22-1.156-.699-1.643l-.3-.305-.452-3.373-.453-3.373-.13-.112a.453.453 0 00-.312-.112.453.453 0 00-.313.112zm.492 5.227c.083.639.151 1.183.15 1.209 0 .026-.142.046-.33.046-.186 0-.328-.02-.329-.046-.003-.144.306-2.37.33-2.37.015 0 .096.522.18 1.161zm.451 2.332c.618.302.91 1 .71 1.691-.104.356-.495.767-.844.885-.55.187-1.08.064-1.49-.344-.291-.291-.415-.584-.414-.982.001-1.043 1.094-1.713 2.038-1.25zm7.422 1.857c2.064.526 3.364 2.596 2.935 4.673-.172.834-.54 1.494-1.17 2.095-1.556 1.487-3.941 1.484-5.517-.007a4.105 4.105 0 01-1.114-1.903c-.14-.522-.142-1.443-.005-1.953.429-1.587 1.71-2.751 3.297-2.994.42-.064 1.129-.024 1.574.09zm-2.217.866c-.18.078-.25.198-.25.422 0 .137.099.317.519.945.48.718.517.791.504.973-.014.195-.016.197-.21.21-.183.014-.256-.024-.974-.504-.648-.433-.805-.518-.954-.518-.226 0-.365.097-.433.3-.095.288.009.429.601.82.288.19.513.361.502.38-.011.018-.243.18-.515.358-.57.374-.679.522-.588.797.03.09.108.199.174.242.244.16.379.112 1.183-.424.707-.471.768-.502.989-.502h.234v.187c0 .159-.076.3-.516.965-.44.663-.516.805-.516.965 0 .325.317.538.616.415.104-.044.244-.209.5-.593.195-.294.37-.517.388-.497.018.02.181.26.363.533.366.55.504.653.774.576.195-.056.379-.32.344-.496-.014-.07-.248-.461-.52-.868-.454-.681-.494-.759-.494-.964v-.223h.223c.206 0 .283.04.964.494.407.272.798.506.868.52.175.035.44-.149.496-.345.077-.27-.025-.407-.575-.773a16.95 16.95 0 01-.534-.364c-.02-.018.203-.192.497-.387.385-.257.55-.396.593-.5a.442.442 0 00-.415-.617c-.16 0-.301.076-.965.517-.664.44-.806.516-.965.516h-.187v-.235c0-.22.031-.281.502-.988.536-.804.584-.94.424-1.184a.532.532 0 00-.242-.173c-.275-.09-.423.018-.797.588-.179.272-.34.503-.358.515-.018.011-.189-.215-.379-.502-.256-.388-.384-.539-.497-.586-.183-.076-.187-.076-.374.005z" fill="#003154"/></symbol><symbol id="icon-benefits-second" viewBox="0 0 24 24"><path fill-rule="evenodd" clip-rule="evenodd" d="M10.133.06c-.16.077-.829 1.119-1.233 1.922-.466.925-.532 1.517-.237 2.118.192.39.512.707.898.892.282.135.343.146.798.146.435 0 .523-.014.759-.125.644-.302 1.117-1.014 1.117-1.681 0-.462-.408-1.405-1.07-2.47-.512-.824-.694-.965-1.031-.803zm.564 1.853c.356.623.6 1.2.6 1.417 0 .183-.113.46-.248.604-.312.334-.902.39-1.24.119-.44-.355-.492-.753-.184-1.404.223-.473.682-1.288.725-1.287.018 0 .174.248.347.55zm6.776 1.428c-.308.112-1.508 2.243-1.648 2.927-.253 1.229.856 2.38 2.1 2.18 1.06-.171 1.768-1.162 1.559-2.18-.087-.424-.636-1.533-1.142-2.308-.297-.456-.4-.578-.524-.621-.178-.062-.168-.062-.345.002zM5.702 3.81c-.145.053-.676.79-1.617 2.244-2.563 3.962-3.977 6.955-4.08 8.632-.032.534.073 1.33.25 1.888a5.929 5.929 0 003.763 3.842c.65.22 1.123.291 1.94.295l.736.004.237.394c.33.55.56.836 1.037 1.289.821.782 1.761 1.272 2.907 1.515.545.116 1.701.117 2.236.003 1.194-.256 2.11-.739 2.973-1.567l.454-.436.254.138c.14.075.475.211.746.302a4.875 4.875 0 004.334-.63 5.079 5.079 0 001.983-2.839c.111-.415.125-.553.125-1.218 0-.666-.014-.804-.125-1.22a5.022 5.022 0 00-3.575-3.572c-.403-.106-.568-.124-1.195-.128-.62-.003-.789.012-1.146.105-.487.128-1.049.356-1.386.564-.13.08-.246.146-.256.146-.01 0-.139-.226-.286-.5a52.508 52.508 0 00-1.607-2.738c-.748-1.2-2.02-3.086-2.139-3.168a.588.588 0 00-.28-.069c-.253 0-.325.086-1.272 1.512l-.795 1.197-.509-.89a65.935 65.935 0 00-2.445-3.901c-.605-.901-.783-1.133-.906-1.185-.175-.073-.18-.073-.356-.01zm12.35 1.493c.552.99.637 1.344.417 1.743a.979.979 0 01-.616.466c-.625.168-1.276-.475-1.11-1.097.066-.248.393-.928.68-1.413.257-.435.202-.46.628.301zm-11.505.763c1.037 1.576 2.121 3.371 2.659 4.402l.136.261-.282.466c-1.25 2.061-2.19 3.953-2.609 5.252-.278.86-.33 1.209-.3 1.99.014.376.06.818.1.983.042.165.062.313.047.328-.06.059-.998.017-1.381-.061a4.83 4.83 0 01-2.415-1.256 4.889 4.889 0 01-1.418-2.374c-.098-.371-.121-.573-.126-1.089-.005-.559.01-.688.124-1.097.475-1.701 1.94-4.485 4.034-7.664.412-.626.755-1.138.763-1.138.007 0 .308.448.668.997zm6.1 3.26c1.072 1.63 1.771 2.781 2.501 4.115l.41.748-.242.267c-.483.534-.911 1.401-1.094 2.211-.118.523-.107 1.543.021 2.064.227.918.603 1.636 1.188 2.262l.338.361-.23.236a5.011 5.011 0 01-3.82 1.478c-1.225-.07-2.308-.558-3.194-1.437-.74-.734-1.172-1.54-1.382-2.577-.116-.574-.076-1.434.092-1.998.411-1.376 1.542-3.635 2.995-5.982.605-.977 1.729-2.674 1.771-2.674.02 0 .31.417.645.926zM20 13.77a4.077 4.077 0 012.394 1.691c1.367 2.053.581 4.79-1.674 5.836-.607.282-.946.352-1.682.349-.548-.002-.69-.02-1.053-.13-1.395-.42-2.434-1.483-2.8-2.865-.141-.532-.14-1.443 0-1.97.422-1.57 1.646-2.684 3.274-2.98.32-.059 1.207-.019 1.541.07zm-2.192.896c-.16.087-.224.204-.224.413 0 .13.105.324.516.942.44.664.516.806.516.965v.187h-.235c-.22 0-.281-.031-.98-.497-.798-.531-.95-.586-1.191-.429a.532.532 0 00-.173.242c-.09.275.018.423.588.797.271.178.504.341.517.362.013.02-.22.199-.516.395-.436.29-.549.388-.59.514-.063.19.03.455.189.54.25.134.392.08 1.216-.468.71-.472.806-.523.97-.51.177.015.182.02.196.212.013.182-.025.255-.505.973-.42.628-.518.808-.518.944 0 .23.072.345.266.427.301.126.439.036.82-.539.184-.275.35-.518.37-.54.02-.022.19.189.377.47.188.28.375.534.415.565.227.173.561.08.692-.194.104-.218.065-.307-.496-1.146-.444-.663-.474-.723-.474-.944v-.236h.185c.156 0 .302.078.95.508.421.28.816.52.878.537.164.043.41-.077.494-.241.163-.315.062-.47-.582-.897-.286-.19-.504-.359-.484-.377.02-.018.26-.182.534-.364.357-.238.514-.372.558-.477a.448.448 0 00-.152-.535c-.24-.178-.379-.13-1.19.41-.685.458-.762.498-.968.498h-.223v-.212c0-.191.048-.284.474-.92.561-.84.6-.929.496-1.146-.107-.224-.325-.328-.549-.26-.15.044-.22.123-.516.57a7.298 7.298 0 01-.376.538c-.018.012-.187-.212-.376-.498-.422-.638-.59-.747-.9-.58z" fill="#003154"/></symbol><symbol id="icon-benefits-third" viewBox="0 0 24 24"><path fill-rule="evenodd" clip-rule="evenodd" d="M9.97.031c-2.707.3-5.034 1.429-6.876 3.335C1.724 4.785.805 6.423.327 8.304.067 9.326 0 9.91 0 11.08c.001 1.159.066 1.702.324 2.722 1.082 4.284 4.673 7.518 9.13 8.221.752.118 2.438.118 3.167 0 .62-.102 1.35-.275 1.798-.428l.33-.112.177.29c.24.389.883 1.048 1.313 1.344 2.482 1.716 5.892.841 7.228-1.853.145-.293.31-.72.38-.986.11-.415.124-.555.123-1.22 0-.657-.016-.808-.122-1.206a5.352 5.352 0 00-.738-1.606c-.297-.429-.956-1.072-1.345-1.312l-.29-.178.093-.266c.15-.432.362-1.347.447-1.93.098-.673.11-2.228.022-2.865-.52-3.763-2.767-6.932-6.067-8.553A11.078 11.078 0 0012.644.097c-.638-.092-2.11-.128-2.675-.066zm2.024.937a10.175 10.175 0 016.966 3.778c2.04 2.564 2.723 5.936 1.833 9.056-.169.593-.124.567-.734.421-.56-.133-1.582-.116-2.162.037-1.386.366-2.386 1.126-3.171 2.41-.05.081-.082.062-.393-.24a6.974 6.974 0 01-1.882-3.206l-.105-.39.194-.194.194-.194 1.563.268c1.681.287 2.145.322 2.643.196a2.988 2.988 0 002.158-2.292c.102-.536.1-2.778-.003-3.123a1.226 1.226 0 00-1.147-.85c-.377 0-.683.159-.965.499-1.069 1.286-2.275 2.092-3.72 2.486l-.438.12-.19-.203-.19-.204.266-1.572c.283-1.682.315-2.117.19-2.606a3.135 3.135 0 00-1.228-1.74 3.77 3.77 0 00-.67-.32l-.4-.144H7.505l-.25.139a1.198 1.198 0 00-.505 1.555c.083.18.21.322.504.568.541.453 1.092 1.047 1.412 1.522.344.512.75 1.36.896 1.871.198.69.2.657-.037.858l-.209.178-1.539-.267c-1.676-.29-2.121-.322-2.636-.189-.77.2-1.556.837-1.898 1.538-.289.592-.32.844-.304 2.455.014 1.342.02 1.42.116 1.598.233.432.595.653 1.072.656.456.002.711-.134 1.061-.564.897-1.101 2.077-1.921 3.327-2.312.755-.236.728-.236.944-.003l.187.203-.268 1.55c-.293 1.697-.323 2.13-.185 2.653.255.967 1.04 1.77 2.043 2.091.213.068.487.086 1.558.103l1.3.02.029.266c.038.347.144.889.206 1.05l.049.128-.386.117c-1.018.309-1.75.414-2.92.418-1.044.004-1.632-.066-2.54-.3a10.149 10.149 0 01-7.102-6.652C.382 11.007.95 7.63 2.992 4.914c.39-.519 1.218-1.372 1.708-1.758C6.784 1.512 9.44.714 11.994.968zm-1.436 2.98c.578.15 1.04.539 1.305 1.1.23.488.225.838-.036 2.348a130.39 130.39 0 01-.24 1.362c-.025.119-.028.12-.498.114l-.474-.005-.15-.49a7.723 7.723 0 00-1.633-2.942c-.268-.304-.46-.487-1.085-1.027-.188-.163-.218-.308-.093-.446.071-.08.177-.086 1.35-.086.996 0 1.335.016 1.554.072zm7.598 3.74c.062.088.073.295.073 1.312 0 .708-.021 1.31-.052 1.456a2.026 2.026 0 01-1.092 1.4c-.516.253-.826.247-2.509-.045-.757-.13-1.382-.238-1.389-.238-.007 0 .006-.111.028-.247.022-.135.028-.353.012-.484l-.028-.238.274-.061c.695-.155 1.604-.566 2.355-1.066.567-.378 1.346-1.088 1.751-1.597.19-.24.261-.296.37-.296.085 0 .16.037.207.104zM11.42 9.863c.902.268 1.17 1.473.47 2.106-.257.232-.485.32-.842.324-.379.004-.663-.122-.93-.413-.19-.205-.336-.566-.336-.824 0-.484.382-1.015.845-1.175.317-.11.475-.113.793-.018zm-3.961.423c.67.113 1.263.216 1.315.229.09.02.096.055.09.5l-.005.48-.371.103c-1.08.3-2.033.81-2.968 1.589-.356.296-.614.566-1.159 1.213-.128.153-.269.165-.399.035-.089-.089-.094-.156-.094-1.35 0-1.65.065-1.914.605-2.452.42-.419.986-.632 1.53-.577.13.013.784.117 1.456.23zm3.789 2.95c.165-.022.228-.013.241.034.557 1.896 1.255 3.042 2.535 4.158l.277.241-.06.284-.06.284h-1.142c-.659 0-1.246-.022-1.39-.052a2.01 2.01 0 01-1.586-2.244c.055-.38.36-2.19.426-2.52l.047-.238.245.04c.134.023.345.028.467.012zm8.79 1.95c2.065.527 3.365 2.596 2.936 4.673-.172.834-.54 1.494-1.17 2.095-1.556 1.487-3.94 1.484-5.516-.007a4.105 4.105 0 01-1.115-1.903c-.14-.522-.142-1.443-.004-1.952.428-1.588 1.71-2.752 3.297-2.995.419-.064 1.128-.024 1.573.09zm-2.216.866c-.18.079-.25.198-.25.423 0 .136.1.316.519.944.48.718.518.791.504.973-.014.195-.016.197-.21.211-.182.013-.256-.025-.973-.504-.648-.434-.806-.52-.955-.52-.225 0-.365.098-.432.302-.095.287.008.428.6.82.288.19.514.36.502.379-.011.018-.243.18-.514.358-.57.374-.68.522-.588.797.03.09.107.2.173.242.244.16.38.112 1.183-.424.707-.471.768-.502.989-.502h.235v.187c0 .16-.076.301-.517.965-.44.663-.516.805-.516.965 0 .325.318.538.616.415.105-.044.244-.209.5-.593.195-.294.37-.517.388-.497.018.02.181.26.363.533.366.55.504.653.774.576.195-.056.379-.321.344-.496-.014-.07-.248-.461-.52-.868-.454-.681-.494-.759-.494-.964v-.223h.223c.206 0 .283.04.964.494.407.272.798.506.868.52.175.035.44-.149.496-.345.077-.27-.025-.407-.575-.773a17.518 17.518 0 01-.534-.363c-.02-.018.204-.193.497-.388.385-.257.55-.396.593-.5a.442.442 0 00-.415-.616c-.16 0-.301.076-.965.516-.664.44-.806.516-.965.516h-.187v-.235c0-.22.031-.281.502-.988.536-.804.584-.94.424-1.183a.532.532 0 00-.242-.174c-.275-.09-.423.019-.797.588-.178.272-.34.504-.358.515-.018.011-.189-.214-.379-.502-.256-.388-.384-.538-.497-.585-.183-.077-.187-.077-.374.005z" fill="#003154"/></symbol><symbol id="icon-footer-links"><path d="M8.833.938l-7.333 7m1.222-7h6.111V6.77" stroke="#EAEAEA" stroke-width="1.3" stroke-linecap="round" stroke-linejoin="round"/></symbol><symbol id="icon-mail"><path d="M2 1a1 1 0 00-1 1v10a1 1 0 001 1h13a1 1 0 001-1V2a1 1 0 00-1-1H2zm5.9 7.175a1.005 1.005 0 001.2 0l.733-.55L15 11.5v.5H2v-.5l5.167-3.875.733.55zm.6-.8L2 2.5V2h13v.5L8.5 7.375zM2 3.75L6.333 7 2 10.25v-6.5zm13 6.5L10.667 7 15 3.75v6.5z" fill="#003154"/><path fill-rule="evenodd" clip-rule="evenodd" d="M2 1.1a.9.9 0 00-.9.9v10a.9.9 0 00.9.9h13a.9.9 0 00.9-.9V2a.9.9 0 00-.9-.9H2zM.9 2A1.1 1.1 0 012 .9h13A1.1 1.1 0 0116.1 2v10a1.1 1.1 0 01-1.1 1.1H2A1.1 1.1 0 01.9 12V2zm1-.1h13.2v.65L8.5 7.5 1.9 2.55V1.9zm.2.2v.35l6.4 4.8 6.4-4.8V2.1H2.1zm-.2 1.45L6.5 7l-4.6 3.45v-6.9zm13.2 0v6.9L10.5 7l4.6-3.45zm-13 .4v6.1L6.167 7 2.1 3.95zM10.833 7l4.067 3.05v-6.1L10.833 7zm-3.666.5l.793.595a.906.906 0 001.08 0l.793-.595 5.267 3.95v.65H1.9v-.65L7.167 7.5zm0 .25L2.1 11.55v.35h12.8v-.35l-5.067-3.8-.673.505a1.106 1.106 0 01-1.32 0l-.673-.505z" fill="#003154"/></symbol><symbol id="icon-pinterest" viewBox="0 0 24 24"><path d="M12 0C5.37 0 0 5.373 0 12.009c0 5.085 3.153 9.43 7.622 11.18-.108-.956-.199-2.399.036-3.444.216-.938 1.405-5.969 1.405-5.969s-.36-.721-.36-1.785c0-1.677.973-2.921 2.162-2.921 1.027 0 1.513.775 1.513 1.695 0 1.028-.648 2.578-.99 4.003-.289 1.19.594 2.164 1.783 2.164 2.126 0 3.766-2.254 3.766-5.5 0-2.867-2.072-4.887-5.01-4.887-3.404 0-5.422 2.56-5.422 5.212 0 1.027.396 2.145.9 2.74.09.127.109.217.09.343-.09.379-.288 1.19-.324 1.352-.054.217-.18.27-.396.163-1.496-.704-2.433-2.885-2.433-4.652 0-3.787 2.757-7.267 7.928-7.267 4.162 0 7.388 2.975 7.388 6.924 0 4.13-2.613 7.465-6.217 7.465-1.207 0-2.36-.631-2.756-1.37l-.74 2.849c-.27 1.045-1.008 2.344-1.495 3.155 1.118.343 2.307.541 3.55.541 6.63 0 12-5.373 12-12.009C24 5.373 18.63 0 12 0z" fill="#fff"/></symbol><symbol id="icon-polair-group" viewBox="0 0 100 32"><path clip-rule="evenodd" d="M40 .598c.947.387 1.614 1.125 2 1.969.386.809.561 1.723.561 2.637 0 1.548-.596 3.06-1.824 3.974a5.251 5.251 0 01-1.79.844c-.666.14-1.438.246-2.14.246H36.07c-.07 0-.15-.009-.228-.018-.079-.008-.158-.017-.228-.017h-.105v3.446h-3.123V.352l.14-.036a24.072 24.072 0 011.86-.246A44.94 44.94 0 0136.56 0c.351 0 .737.035 1.123.07.421.035.842.106 1.228.176.386.106.737.211 1.088.352zM36.175 7.49c.386.035.842.035 1.228-.035.492-.07 2-.317 2-2.18 0-1.95-1.239-2.223-1.621-2.307a3.905 3.905 0 00-1.01-.12c-.15 0-.301.01-.44.02-.122.008-.234.016-.332.016-.14 0-.456.035-.456.035v4.536s.526.035.631.035zM0 27.464V.14h24.28v27.323L12.14 31.93 0 27.464zM19.404 8.58a19.923 19.923 0 00-1.053-.316c-1.614-.387-3.158-.422-4.421-.106.491.352 1.017.914 1.438 1.653 1.123-.106 2.351.07 3.58.563.112.048.217.096.315.141.116.053.22.102.316.14l.737-1.653-.07-.035a4.677 4.677 0 00-.842-.387zM6.772 9.81h.105c.116 0 .257-.023.421-.051l.106-.018C7.93 9.67 8.595 9.6 8.632 9.6H9.579c.631 0 1.228.21 1.474.316.386.141.736.352 1.017.633.28.247.491.563.632.95.14.351.21.774.21 1.195 0 .493-.07.95-.245 1.372-.176.387-.386.773-.702 1.055l-.105.105.001.008c.039.194.218 1.092.806 1.786.21-.141.42-.282.631-.457.527-.422.912-.985 1.228-1.618.316-.633.456-1.407.456-2.25 0-.739-.14-1.442-.385-2.04a3.986 3.986 0 00-1.088-1.512 4.842 4.842 0 00-1.684-.914c-.562-.176-1.544-.387-2.386-.387-1.334 0-2.562.105-3.088.21h-.176c-.28 0-1.017.071-1.579.212l-.105.035v12.554h2.035V17.37c.351.106 1.053.282 2 .422-.366-.834-.511-1.574-.555-1.797l-.006-.031c-.455-.076-.837-.17-1.134-.244-.115-.028-.216-.053-.305-.073V9.846a.687.687 0 00.123-.017.686.686 0 01.123-.018zm13.614 10.093l.035-.035h.035v-5.52h-3.895L15.79 16l2.842-.035v2.743l-.07.07c-.024.012-.044.023-.063.035-.039.024-.078.047-.148.07-.176.07-.421.141-.667.211-.245.07-.491.106-.772.141-1.614.211-3.79-.105-4.982-1.688-1.088-1.406-1.298-3.657-.527-5.204.106-.246.246-.457.421-.668-.456-.81-1.298-.95-1.614-.985-.807 1.125-1.298 2.497-1.298 3.833 0 2.813 1.404 5.064 3.755 6.084.877.386 1.93.562 3.017.562.912 0 1.86-.105 2.807-.387a7.838 7.838 0 001.088-.387l.165-.09c.248-.136.469-.257.642-.402zM39.404 24.3l-1.123 2.497h3.087v1.934c-.14.07-.28.14-.456.175-.184.062-.396.097-.587.128l-.08.013c-.21.035-.455.07-.666.07-.116 0-.232.011-.336.02-.085.009-.162.016-.225.016-.562 0-1.088-.036-1.58-.141-.455-.106-.877-.246-1.227-.492-.527-.317-.948-.774-1.264-1.372-.315-.598-.456-1.3-.456-2.145 0-.703.106-1.336.316-1.899a3.62 3.62 0 01.912-1.336c.21-.176.421-.352.702-.492.246-.141.526-.246.807-.317.28-.07.597-.14.877-.176a7.411 7.411 0 012.772.211c.632.176 1.193.387 1.755.633l.175.07.912-2.742-.14-.07c-.737-.352-1.509-.563-2.35-.739a15.217 15.217 0 00-2.492-.211c-.456 0-.947.035-1.474.105a7.61 7.61 0 00-2.947 1.02 5.931 5.931 0 00-1.263 1.055c-.246.282-.491.598-.737.915-.21.351-.421.703-.597 1.125-.175.387-.28.844-.386 1.3-.105.458-.14.95-.14 1.478 0 1.09.175 2.075.491 2.919a5.847 5.847 0 001.474 2.215c.386.352.772.668 1.228.914.456.246.912.457 1.404.598a10.753 10.753 0 002.947.422c.35 0 .702 0 1.123-.035.364-.03.729-.087 1.116-.148l.182-.028c.456-.106.912-.211 1.368-.387l.064-.024c.444-.171.975-.376 1.41-.644l.07-.035v-6.295h-4.666V24.3zM94.49 18.32c.386.105.737.21 1.088.351.982.387 1.614 1.09 2 1.934.386.774.561 1.724.561 2.638 0 1.547-.596 3.06-1.824 3.974a5.25 5.25 0 01-1.79.843c-.666.141-1.438.247-2.14.247H91.649c-.07 0-.149-.01-.228-.018-.079-.009-.158-.018-.228-.018h-.105v3.447h-3.123V18.426l.14-.035a24.052 24.052 0 011.86-.246c.666-.035 1.509-.07 2.175-.07.351 0 .737.035 1.123.07.421.035.842.105 1.228.176zm-2.737 7.244a4.79 4.79 0 001.228-.035l.016-.004.065-.013c.557-.114 1.92-.393 1.92-2.164 0-1.95-1.24-2.222-1.622-2.306l-.063-.014a3.907 3.907 0 00-.947-.106c-.15 0-.301.01-.44.02-.122.008-.234.015-.332.015-.14 0-.456.035-.456.035v4.537s.526.035.631.035zM50.14 13.96c1.053 0 2-.175 2.842-.492.843-.352 1.544-.809 2.14-1.442.597-.598 1.018-1.371 1.334-2.215.316-.844.456-1.793.456-2.848 0-1.02-.14-1.97-.456-2.814-.316-.844-.737-1.582-1.333-2.215a6.564 6.564 0 00-2.14-1.442C52.14.141 51.192 0 50.14 0c-1.017 0-1.93.176-2.736.457-.808.317-1.544.774-2.14 1.372-.597.597-1.053 1.336-1.37 2.215a8.69 8.69 0 00-.49 2.954c0 1.09.175 2.074.49 2.954.317.879.773 1.617 1.37 2.215a5.898 5.898 0 002.14 1.371 9.503 9.503 0 002.736.422zm-3.438-7.033c0-.738.07-1.371.245-1.898.176-.528.386-.95.702-1.302.316-.351.667-.597 1.088-.738.42-.176.912-.246 1.438-.246.597 0 1.123.105 1.544.316.421.211.807.493 1.088.88.28.351.491.808.632 1.336.14.527.21 1.09.21 1.688 0 .597-.07 1.16-.21 1.688-.14.527-.351.949-.632 1.336-.28.351-.632.668-1.088.879-.42.21-.947.316-1.544.316-.526 0-1.017-.07-1.438-.246a3.316 3.316 0 01-1.088-.738c-.316-.352-.526-.774-.702-1.301-.175-.598-.245-1.231-.245-1.97zM62 10.866h4l-1.228 2.813h-5.895V.141H62v10.725zm7.123 2.813l1.193-2.778h5.193l1.193 2.778h3.333L74.14.141h-2.28l-5.895 13.538h3.158zm3.79-9.143l.455 1.336 1.053 2.497h-3.018l1.053-2.461.456-1.372zM81.508.141h3.122v13.538H81.51V.141zm9.298 8.263l1.509.176 3.824 5.1H100l-4.21-5.276-.457-.457.058-.021.044-.016c.253-.094.524-.195.74-.35.351-.21.667-.492.948-.808.28-.317.491-.704.631-1.16.14-.458.246-.95.246-1.513 0-.738-.14-1.371-.456-1.899-.316-.527-.702-.95-1.228-1.266a4.033 4.033 0 00-.877-.422A8.6 8.6 0 0094.42.211c-.35-.07-.702-.105-1.088-.14-.35-.036-.701-.036-1.052-.036-.281 0-.632 0-1.018.035-.356 0-.712.03-1.096.063L90.07.14c-.42.035-.807.07-1.193.105-.386.035-.737.07-1.052.14l-.14.036v13.257h3.122V8.404zm3.228-2.356c-.245.141-.526.247-.877.282-.35.07-.702.07-1.018.07h-1.333V3.13h.175c.14 0 .281 0 .421-.035h.492c.526 0 1.017 0 1.438.07.281.035.562.14.772.281.21.14.351.281.492.528.105.21.175.457.175.668 0 .387-.07.668-.175.914-.176.176-.351.352-.562.492zM54.347 25.95l-.102.038.457.492 4.21 5.275h-3.86l-3.824-5.1-1.509-.175v5.275h-3.123V18.46l.14-.035c.317-.07.667-.105 1.053-.14h.002c.385-.036.77-.07 1.191-.106l.097-.008c.384-.032.74-.062 1.096-.062.386-.035.737-.035 1.018-.035.35 0 .702 0 1.053.035.385.035.736.07 1.087.14s.702.176 1.018.282c.316.105.596.246.877.422.526.316.912.738 1.228 1.266.316.527.456 1.16.456 1.899 0 .562-.105 1.055-.245 1.512-.14.457-.351.844-.632 1.16-.28.317-.596.598-.947.809-.217.155-.488.255-.741.349zm-.909-2.635a2.23 2.23 0 00.176-.914c0-.246-.07-.457-.14-.633a1.426 1.426 0 00-.492-.527 1.847 1.847 0 00-.772-.282c-.42-.07-.912-.07-1.438-.07h-.491c-.14.035-.281.035-.422.035h-.175v3.27h1.333c.316 0 .667 0 1.018-.07.35-.035.632-.14.877-.281.21-.141.386-.317.526-.528zm16.808-3.375a6.566 6.566 0 00-2.14-1.442c-.843-.352-1.79-.493-2.843-.493-1.017 0-1.93.176-2.737.458-.807.316-1.544.773-2.14 1.371-.597.598-1.053 1.336-1.369 2.215a8.686 8.686 0 00-.49 2.954c0 1.09.175 2.075.49 2.954.316.88.772 1.618 1.369 2.215a5.9 5.9 0 002.14 1.372c.807.316 1.755.457 2.737.457 1.053 0 2-.176 2.842-.492.842-.352 1.544-.81 2.14-1.442.597-.633 1.018-1.371 1.334-2.215.316-.844.456-1.794.456-2.849 0-1.02-.14-1.969-.456-2.813-.316-.88-.737-1.653-1.333-2.25zm-1.51 5.028c0 .598-.07 1.16-.21 1.688-.14.527-.35.95-.631 1.336-.281.352-.632.668-1.088.88-.421.21-.948.316-1.544.316-.526 0-1.017-.07-1.439-.246a3.317 3.317 0 01-1.087-.739c-.316-.351-.527-.773-.702-1.3-.175-.528-.246-1.161-.246-1.9 0-.738.07-1.371.246-1.899.175-.527.386-.95.702-1.3.28-.352.666-.599 1.087-.74.422-.175.913-.245 1.439-.245.596 0 1.123.105 1.544.316.42.211.807.492 1.088.88.28.35.49.808.631 1.335.14.458.21 1.02.21 1.618zm13.37 2.848c.105-.316.175-.703.175-1.16V18.25h2.982v8.546c0 .879-.14 1.652-.42 2.285a3.84 3.84 0 01-1.124 1.618 4.817 4.817 0 01-1.719.95 8.22 8.22 0 01-2.105.28c-.877 0-1.684-.07-2.386-.28a5.232 5.232 0 01-1.825-.915 3.722 3.722 0 01-1.123-1.512 5.466 5.466 0 01-.386-2.075v-8.896h3.123v8.404c0 .844.21 1.512.597 1.899.386.387 1.052.598 1.965.598.386 0 .737-.036 1.052-.141.281-.07.527-.211.737-.422.21-.211.351-.457.456-.774z"/></symbol><symbol id="icon-select" viewBox="0 0 5 10"><path clip-rule="evenodd" d="M.584 8.91A.31.31 0 01.5 8.692a.328.328 0 01.084-.218L3.81 5 .584 1.526A.31.31 0 01.5 1.308a.329.329 0 01.084-.218.268.268 0 01.404 0l3.428 3.692A.31.31 0 014.5 5a.328.328 0 01-.084.218L.988 8.91a.268.268 0 01-.404 0z"/><path clip-rule="evenodd" d="M.584 8.91A.31.31 0 01.5 8.692a.328.328 0 01.084-.218L3.81 5 .584 1.526A.31.31 0 01.5 1.308a.329.329 0 01.084-.218.268.268 0 01.404 0l3.428 3.692A.31.31 0 014.5 5a.328.328 0 01-.084.218L.988 8.91a.268.268 0 01-.404 0z"/><path clip-rule="evenodd" d="M.584 8.91A.31.31 0 01.5 8.692a.328.328 0 01.084-.218L3.81 5 .584 1.526A.31.31 0 01.5 1.308a.329.329 0 01.084-.218.268.268 0 01.404 0l3.428 3.692A.31.31 0 014.5 5a.328.328 0 01-.084.218L.988 8.91a.268.268 0 01-.404 0z"/><path clip-rule="evenodd" d="M.584 8.91A.31.31 0 01.5 8.692a.328.328 0 01.084-.218L3.81 5 .584 1.526A.31.31 0 01.5 1.308a.329.329 0 01.084-.218.268.268 0 01.404 0l3.428 3.692A.31.31 0 014.5 5a.328.328 0 01-.084.218L.988 8.91a.268.268 0 01-.404 0z"/></symbol><symbol id="icon-telegram" viewBox="0 0 24 20"><path d="M1.471 8.71s10.615-4.39 14.296-5.936C17.18 2.155 21.964.177 21.964.177s2.21-.866 2.025 1.236c-.061.866-.552 3.896-1.043 7.173-.736 4.638-1.534 9.709-1.534 9.709s-.123 1.422-1.166 1.67c-1.043.247-2.76-.866-3.067-1.114-.246-.185-4.602-2.968-6.197-4.328-.43-.371-.92-1.113.06-1.979 2.21-2.04 4.848-4.576 6.443-6.184.737-.742 1.473-2.473-1.595-.37-4.356 3.03-8.651 5.874-8.651 5.874s-.982.618-2.823.061a126.724 126.724 0 01-3.988-1.298s-1.472-.928 1.043-1.917z" fill="#fff"/></symbol><symbol id="icon-vk" viewBox="0 0 24 15"><path d="M13.072 15C4.872 15 .195 9.37 0 0h4.107C4.242 6.877 7.27 9.79 9.67 10.39V0h3.868v5.93c2.368-.254 4.856-2.957 5.696-5.93H23.1c-.644 3.664-3.343 6.366-5.261 7.477C19.758 8.378 22.83 10.736 24 15h-4.258c-.914-2.853-3.192-5.06-6.205-5.36V15h-.465z" fill="#fff"/></symbol><symbol id="icon-youtabe" viewBox="0 0 24 18"><path d="M22.98 2.34C22.329 1.182 21.622.969 20.184.888 18.747.79 15.134.75 12.003.75c-3.136 0-6.752.04-8.187.136-1.435.083-2.143.295-2.8 1.454C.345 3.497 0 5.489 0 8.995v.012c0 3.492.345 5.5 1.016 6.644.657 1.158 1.363 1.368 2.798 1.465 1.438.085 5.053.134 8.189.134 3.13 0 6.744-.05 8.183-.132 1.438-.098 2.145-.307 2.796-1.465C23.657 14.508 24 12.5 24 9.008v-.008-.004c0-3.508-.342-5.5-1.02-6.657zM9 13.5v-9L16.5 9 9 13.5z" fill="#fff"/></symbol><symbol id="logo" viewBox="0 0 129 20"><g clip-path="url(#clip0_3504_131)"><path clip-rule="evenodd" d="M34.535.002c-8.125 0-11.747 4.773-11.747 10.033 0 5.248 4.174 9.963 11.747 9.963 8.019 0 11.84-4.715 11.84-9.963 0-5.26-3.821-10.033-11.84-10.033zm3.515 11.18c.141 3.406-.752 6.847-2.551 7.24-1.905-.255-3.928-3.87-4.14-9.372-.129-3.198.436-6.754 2.423-7.484 1.67.301 4.045 3.696 4.268 9.616zM59.085.465h-8.242v19.07h13.804v-2.202l-5.562.012V.465zm17.579 14.123h-6.197s-.952 4.251-1.129 4.947H66.94L71.337.465h10.935l4.34 19.07h-8.808l-1.14-4.947zm-.447-1.97L73.995 2.98h-.847l-2.222 9.64h5.291zM118.123.465h-10.394v19.07h8.243V12.78l1.105.105 3.045 6.65H129l-4.292-6.465-.341-.602c2.281-1.055 3.692-2.92 3.763-6.106.047-1.599-.447-3.244-1.658-4.344-1.86-1.695-4.629-1.63-7.086-1.573-.433.01-.856.02-1.263.02zm.094 10.96s-1.787-.116-2.234-.197V2.006c3.928 0 3.928 3.21 3.928 4.391 0 2.861-1.694 5.028-1.694 5.028zm-18.013 8.11h-8.243V.465h8.243v19.07zM20.071 6.2c0-5.318-4.738-5.735-9.594-5.735H0v19.07h8.254v-5.341c.788.162 1.811.255 2.881.255 4.421 0 8.936-1.483 8.936-8.249zm-9.594 6.43s-1.729-.093-2.223-.197V2.006c3.892 0 3.892 3.626 3.892 4.97 0 3.603-1.67 5.654-1.67 5.654z"/></g></symbol><symbol id="toggle-menu" viewBox="0 0 18 16"><path fill-rule="evenodd" clip-rule="evenodd" d="M.25 14.667c0-.221.084-.433.233-.59a.778.778 0 01.562-.244h15.91c.21 0 .413.088.562.244.15.157.233.369.233.59a.854.854 0 01-.233.589.778.778 0 01-.563.244H1.045a.778.778 0 01-.562-.244.854.854 0 01-.233-.59zM.25 8c0-.221.084-.433.233-.59a.778.778 0 01.562-.243h15.91c.21 0 .413.087.562.244.15.156.233.368.233.589a.854.854 0 01-.233.59.778.778 0 01-.563.243H1.045a.778.778 0 01-.562-.244A.854.854 0 01.25 8zm0-6.667c0-.22.084-.433.233-.589A.778.778 0 011.045.5h15.91c.21 0 .413.088.562.244.15.156.233.368.233.59a.854.854 0 01-.233.589.778.778 0 01-.563.244H1.045a.778.778 0 01-.562-.244.854.854 0 01-.233-.59z" fill="#1E1E1E"/><path fill-rule="evenodd" clip-rule="evenodd" d="M1.045.563c-.193 0-.38.08-.517.224a.791.791 0 00-.216.546c0 .206.078.402.216.546a.715.715 0 00.517.225h15.91c.193 0 .38-.08.517-.225a.791.791 0 00.215-.546.791.791 0 00-.215-.546.715.715 0 00-.518-.225H1.045zM.438.7a.84.84 0 01.607-.263h15.91a.84.84 0 01.607.263c.16.168.25.396.25.632 0 .237-.09.465-.25.633a.84.84 0 01-.608.263H1.045a.84.84 0 01-.607-.263.916.916 0 01-.25-.633c0-.236.09-.464.25-.632zm.607 6.528c-.193 0-.38.08-.517.225A.791.791 0 00.312 8c0 .205.078.402.216.546a.715.715 0 00.517.225h15.91c.193 0 .38-.08.517-.225A.791.791 0 0017.687 8a.791.791 0 00-.215-.546.715.715 0 00-.518-.225H1.045zm-.607.139a.84.84 0 01.607-.264h15.91a.84.84 0 01.607.264c.16.168.25.395.25.632s-.09.464-.25.632a.84.84 0 01-.608.264H1.045a.84.84 0 01-.607-.264A.916.916 0 01.188 8c0-.237.09-.464.25-.632zm.607 6.528c-.193 0-.38.08-.517.225a.791.791 0 00-.216.546c0 .205.078.401.216.546a.715.715 0 00.517.225h15.91c.193 0 .38-.081.517-.225a.792.792 0 00.215-.546.791.791 0 00-.215-.546.715.715 0 00-.518-.225H1.045zm-.607.138a.84.84 0 01.607-.263h15.91a.84.84 0 01.607.263c.16.168.25.396.25.633 0 .236-.09.464-.25.632a.84.84 0 01-.608.264H1.045a.84.84 0 01-.607-.264.916.916 0 01-.25-.632c0-.237.09-.464.25-.633z" fill="#1E1E1E"/></symbol><symbol id="toggle-search" viewBox="0 0 18 18"><path d="M7.784.25C3.632.25.25 3.632.25 7.784c0 4.153 3.382 7.535 7.534 7.535a7.498 7.498 0 004.785-1.717h.008l3.926 3.934a.731.731 0 001.033 0 .722.722 0 000-1.025l-3.941-3.934v-.008a7.504 7.504 0 001.724-4.785c0-4.152-3.382-7.534-7.535-7.534zm0 1.458a6.065 6.065 0 016.076 6.076 6.065 6.065 0 01-6.076 6.076 6.065 6.065 0 01-6.076-6.076 6.065 6.065 0 016.076-6.076z" fill="#1E1E1E"/><path fill-rule="evenodd" clip-rule="evenodd" d="M.188 7.784c0-4.187 3.41-7.596 7.596-7.596h.074c4.153.04 7.523 3.434 7.523 7.596a7.565 7.565 0 01-1.706 4.785l3.906 3.898c.309.309.309.805 0 1.114a.794.794 0 01-1.122 0l-3.89-3.898a7.56 7.56 0 01-4.785 1.698c-4.187 0-7.596-3.41-7.596-7.597zM7.75.313C3.648.33.312 3.678.312 7.784c0 4.118 3.354 7.472 7.472 7.472 1.8 0 3.454-.637 4.746-1.702l.017-.014h.056l3.945 3.952c.26.26.684.26.944 0a.66.66 0 000-.937l-3.974-3.966.014-.027.001-.005a.063.063 0 01.013-.027 7.442 7.442 0 001.71-4.746c0-4.118-3.354-7.471-7.472-7.471h-.033zm.033 1.458a6.003 6.003 0 00-6.013 6.013 6.003 6.003 0 006.013 6.014 6.003 6.003 0 006.014-6.014 6.003 6.003 0 00-6.014-6.013zM1.646 7.784a6.128 6.128 0 016.138-6.138 6.128 6.128 0 016.139 6.138 6.128 6.128 0 01-6.139 6.139 6.128 6.128 0 01-6.138-6.139z" fill="#1E1E1E"/></symbol></svg>